. 
  
http://www.torrentday.com/        :     The Hottest Private Tracker On The Net!!!
 
http://www.torrentday.com          :     Once & For all ;)


               www . TorrentDay . Com 

(((((((((((((= Enjoy No RAR releases =))))))))))))))))))))


...................................NFO:....................................

.[img]http://img143.imageshack.us/img143/6836/skylinebluray.jpg[/img]

[color=blue][size=5][b]Skyline 2010 BDRip XVID AC3 HQ Hive-CM8[/b][/size][/color]


[b]Thx Hive

CM8 Doing It Right The First Time :D

Why download a touched up rip of a rip BRrip
Get the real deal BDRip
Enjoy

Source: Full Russian Bluray

Video: 720x304 @bitrate 2000 2pass
Audio: English DTS 7.1 to AC3 5.1 @448
Sample: yes included[/b]
 
http://www.imdb.com/title/tt1564585/


General
Complete name                    : Skyline.2010.BDRip.XVID.AC3.HQ.Hive-CM8.avi
Format                           : AVI
Format/Info                      : Audio Video Interleave
File size                        : 1.59 GiB
Duration                         : 1h 32mn
Overall bit rate                 : 2 457 Kbps
Writing application              : Nandub v1.0rc2
Writing library                  : Nandub build 1853/release

Video
ID                               : 0
Format                           : MPEG-4 Visual
Format profile                   : Advanced Simple@L5
Format settings, BVOP            : Yes
Format settings, QPel            : Yes
Format settings, GMC             : No warppoints
Format settings, Matrix          : Default (H.263)
Muxing mode                      : Packed bitstream
Codec ID                         : XVID
Codec ID/Hint                    : XviD
Duration                         : 1h 32mn
Bit rate                         : 2 000 Kbps
Width                            : 720 pixels
Height                           : 304 pixels
Display aspect ratio             : 2.35:1
Frame rate                       : 23.976 fps
Color space                      : YUV
Chroma subsampling               : 4:2:0
Bit depth                        : 8 bits
Scan type                        : Progressive
Bits/(Pixel*Frame)               : 0.381
Stream size                      : 1.29 GiB (81%)
Writing library                  : XviD 1.2.1 (UTC 2008-12-04)

Audio
ID                               : 1
Format                           : AC-3
Format/Info                      : Audio Coding 3
Mode extension                   : CM (complete main)
Codec ID                         : 2000
Duration                         : 1h 32mn
Bit rate mode                    : Constant
Bit rate                         : 448 Kbps
Channel(s)                       : 6 channels
Channel positions                : Front: L C R, Side: L R, LFE
Sampling rate                    : 48.0 KHz
Bit depth                        : 16 bits
Video delay                      : 22ms
Stream size                      : 296 MiB (18%)
Alignment                        : Split accross interleaves
Interleave, duration             : 42 ms (1.00 video frame)
Interleave, preload duration     : 500 ms



Eric Balfour ... Jarrod
Scottie Thompson ... Elaine
Brittany Daniel ... Candice
Crystal Reed ... Denise
Neil Hopkins ... Ray
David Zayas ... Oliver
Donald Faison ... Terry
Robin Gammell ... Walt
Tanya Newbould ... Jen
J. Paul Boehmer ... Colin




Strange lights descend on the city of Los Angeles, drawing people
outside like moths to a flame where an extraterrestrial force threatens
to swallow the entire human population off the face of the Earth.




[img]http://img580.imageshack.us/img580/7721/sksksksksskskksk.png[/img]
[img]http://img836.imageshack.us/img836/2938/40699759.png[/img]
[img]http://img529.imageshack.us/img529/7072/sksk.png[/img]
[img]http://img37.imageshack.us/img37/2402/sksksk.png[/img]
[img]http://img412.imageshack.us/img412/6888/sksksksk.png[/img]
[img]http://img151.imageshack.us/img151/1135/sksksksksk.png[/img]
[img]http://img411.imageshack.us/img411/4779/sksksksksksk.png[/img]
[img]http://img826.imageshack.us/img826/1844/sksksksksksskskksk.png[/img]
[img]http://img841.imageshack.us/img841/2391/sksksksksskksk.png[/img]





Greetz

iNK,LUSi,,MAGNET,CLASSiFiED,THC,LEGi0N,T0XiC,IMAGiNE,ViSiON,WBZ,FLAWL3SS,NOVA
Vik,Rapeseed,D2U,SAFC,goldadvance,MEMORY100,KaN1vE,Unevano,Pinnz,Wayne,Mr Hive
and all P2P groups 
Great Work Guys :D